<?xml version="1.0" encoding="UTF-8"?>
<svg id="Layer_2" data-name="Layer 2" xmlns="http://www.w3.org/2000/svg" viewBox="0 0 124.98 133.11">
  <defs>
    <style>
      .cls-1 {
        fill: #faab00;
      }
    </style>
  </defs>
  <g id="Layer_1-2" data-name="Layer 1">
    <g>
      <path class="cls-1" d="M50.95,54.91c-9.4-5.87-24.23-8.87-44.5-9l2.8-14.8c.4-1.87,1.4-2.8,3-2.8l42.4-1c1.73,0,2.97-.2,3.7-.6,.73-.4,1.37-1.33,1.9-2.8L64.25,.91c.13-.53-.17-.83-.9-.9-.73-.07-1.17,.1-1.3,.5-.67,2-1.9,3.43-3.7,4.3-1.8,.87-5.87,1.7-12.2,2.5-6.33,.8-18.7,2.2-37.1,4.2-1.2,.13-1.9,.3-2.1,.5s-.37,.77-.5,1.7L.05,49.31c-.13,.67,0,1.23,.4,1.7,.4,.47,.93,.7,1.6,.7,13.07,0,23.07,2.7,30,8.1,6.93,5.4,10.4,13.03,10.4,22.9,0,5.04-1.07,9.93-3.19,14.68-.41,.93-.86,1.85-1.36,2.76-1.33,2.46-2.94,4.88-4.85,7.26-1.56,1.94-3.39,3.88-5.5,5.82-3.23,2.98-7.12,5.96-11.65,8.95-4.4,2.9-9.42,5.81-15.05,8.73-.53,.27-.63,.7-.3,1.3,.33,.6,.77,.9,1.3,.9h.2c5.5-2.19,10.61-4.36,15.35-6.52,4.59-2.08,8.81-4.15,12.69-6.2,8.43-4.45,15.19-8.81,20.26-13.09,.46-.39,.91-.79,1.35-1.18,2.39-2.14,4.47-4.36,6.22-6.64,4.75-6.21,7.14-12.93,7.14-20.17,0-10.4-4.7-18.53-14.1-24.4Z"/>
      <path class="cls-1" d="M115.62,65.11c-2.6-2.08-6.07-4.51-10.4-7.28-3.99-2.6-7.15-4.81-9.49-6.63-2.25-1.75-4.14-3.78-5.71-6.08-.07-.1-.14-.19-.21-.29-1.35-2.04-2.13-4.34-2.34-6.88-.04-.47-.07-.95-.07-1.44,0-3.81,1.1-6.72,3.31-8.71,1.9-1.72,4.27-2.69,7.11-2.93,.46-.04,.92-.06,1.41-.06,5.2,0,9.25,1.91,12.15,5.72,.08,.1,.15,.21,.23,.32,2.81,3.76,5.26,8.28,7.37,13.59l1.04,2.47c.09,.26,.35,.33,.78,.2,.43-.13,.65-.33,.65-.58V27.41c0-.6-.13-1.1-.39-1.49-.26-.39-.78-.76-1.56-1.1-.51-.21-1.07-.41-1.68-.61-1.63-.53-3.58-1-5.86-1.41-3.12-.56-6.2-.85-9.23-.85-1.2,0-2.39,.05-3.56,.16-3.31,.29-6.5,1-9.57,2.12-4.16,1.52-7.56,3.86-10.21,7.02-2.64,3.16-3.96,7.04-3.96,11.63,0,1.41,.13,2.75,.38,4.02,.31,1.58,.81,3.05,1.5,4.41,.18,.36,.38,.71,.59,1.06,1.65,2.69,3.62,4.98,5.92,6.89,2.3,1.91,5.52,4.2,9.69,6.89,4.25,2.77,7.58,5.16,10.01,7.15,2.43,1.99,4.48,4.42,6.17,7.28s2.54,6.2,2.54,10.01c0,4.51-1.13,7.69-3.38,9.56-2.25,1.86-5.11,2.79-8.58,2.79-3.81,0-7.22-1.26-10.21-3.77-2.99-2.51-5.46-5.42-7.41-8.71-1.95-3.29-4.23-7.58-6.83-12.87-.09-.34-.35-.5-.78-.46-.43,.04-.65,.24-.65,.58v.13l.39,20.67c0,.69,.11,1.19,.33,1.49,.22,.3,.54,.63,.98,.98,1.47,1.3,4.33,2.49,8.58,3.58,4.25,1.08,8.32,1.62,12.22,1.62,5.29,0,10.08-.98,14.37-2.93,4.29-1.95,7.65-4.68,10.07-8.19,2.43-3.51,3.64-7.52,3.64-12.03,0-3.9-.91-7.34-2.73-10.33s-4.03-5.52-6.63-7.6Z"/>
    </g>
  </g>
</svg>