<svg xmlns="http://www.w3.org/2000/svg" xmlns:xlink="http://www.w3.org/1999/xlink" width="210" height="750.58" viewBox="0 0 210 750.58">
  <defs>
    <linearGradient id="linear-gradient" x1="0.5" y1="-0.184" x2="0.532" y2="1.505" gradientUnits="objectBoundingBox">
      <stop offset="0" stop-color="#ffd440"/>
      <stop offset="1" stop-color="#ece9d8"/>
    </linearGradient>
  </defs>
  <g id="Group_92" data-name="Group 92" transform="translate(-398 -224)">
    <g id="Group_90" data-name="Group 90" transform="translate(398 224)">
      <path id="Path_319" data-name="Path 319" d="M0,0H210V695s-105.045,55.742-105.045,55.58C104.843,750.58,0,695,0,695Z" fill="url(#linear-gradient)"/>
      <path id="Path_318" data-name="Path 318" d="M-22124-18985h208.475v695.094H-22124Z" transform="translate(22123.996 18985)" fill="none"/>
      <g id="Path_320" data-name="Path 320" transform="translate(13.508 11.215)" fill="none" style="mix-blend-mode: screen;isolation: isolate">
        <path d="M0,0H182.984V667.644s-91.531,53.548-91.531,53.392c-.1,0-91.453-53.392-91.453-53.392Z" stroke="none"/>
        <path d="M 4 4 L 4 665.34912109375 C 32.3533935546875 681.9196166992188 81.21150207519531 710.4647827148438 91.47394561767578 716.4298095703125 C 102.1643981933594 710.2684936523438 155.3023376464844 679.2039794921875 178.984375 665.3502807617188 L 178.984375 4 L 4 4 M 0 0 L 182.984375 0 L 182.984375 667.6444091796875 C 182.984375 667.6444091796875 91.72132110595703 721.037109375 91.45394897460938 721.037109375 C 91.45355224609375 721.037109375 91.453369140625 721.0370483398438 91.453369140625 721.0368041992188 C 91.35582733154297 721.0368041992188 0 667.6444091796875 0 667.6444091796875 L 0 0 Z" stroke="none" fill="#4b3507"/>
      </g>
    </g>
    <path id="Intersection_3" data-name="Intersection 3" d="M24.332,29.057c-.034,0-10.063-5.74-22.9-13.1a24.672,24.672,0,0,1,46.337.473c-11.748,6.36-23.343,12.624-23.432,12.625Z" transform="translate(478.616 924)" fill="#f6e8a7"/>
    <path id="Polygon_3" data-name="Polygon 3" d="M7,0l7,30H0Z" transform="translate(496 892)" fill="#f6e8a7"/>
    <path id="Polygon_4" data-name="Polygon 4" d="M7,0l7,30H0Z" transform="matrix(0.643, 0.766, -0.766, 0.643, 540.518, 905)" fill="#f6e8a7"/>
    <path id="Polygon_5" data-name="Polygon 5" d="M7,0l7,30H0Z" transform="translate(456.482 915.725) rotate(-50)" fill="#f6e8a7"/>
  </g>
</svg>
