<svg xmlns="http://www.w3.org/2000/svg" viewBox="0 0 123.29 123.53"><defs><style>.cls-1{fill:#fff;}.cls-2{opacity:0.19;}</style></defs><g id="Layer_2" data-name="Layer 2"><g id="Layer_1-2" data-name="Layer 1"><path class="cls-1" d="M120.28,64.63v35c0,4.15.14,8.33,0,12.48a8.86,8.86,0,0,1-8.79,8.43c-.7,0-1.4,0-2.1,0H16c-3.53,0-7.18.37-10-2.24-2.23-2-2.92-4.67-2.92-7.57V65.44a9.32,9.32,0,0,1,3.41-7.76,9.56,9.56,0,0,1,6-1.82H87.35c8.05,0,16.11-.12,24.15,0a8.87,8.87,0,0,1,8.78,8.77c0,1.93,3,1.94,3,0a11.9,11.9,0,0,0-9.67-11.58,20.49,20.49,0,0,0-3.5-.19H15.89c-4.15,0-8.09-.14-11.57,2.7A12.11,12.11,0,0,0,0,65.18v45.67a12.76,12.76,0,0,0,2.9,8.61,12,12,0,0,0,9.17,4c3.11,0,6.21,0,9.32,0h83.23c2.4,0,4.81.08,7.21,0a11.87,11.87,0,0,0,11.23-9.66,28.78,28.78,0,0,0,.19-4.91V64.63A1.5,1.5,0,0,0,120.28,64.63Z"/><g class="cls-2"><path class="cls-1" d="M58.9,120.25h-35c-4.15,0-8.33.14-12.48,0A8.86,8.86,0,0,1,3,111.46c0-.7,0-1.4,0-2.11V16c0-3.53-.36-7.18,2.24-10C7.31,3.68,10,3,12.84,3H58.09a9.36,9.36,0,0,1,7.77,3.41,9.54,9.54,0,0,1,1.81,6V87.31c0,8,.12,16.11,0,24.16a8.87,8.87,0,0,1-8.77,8.78c-1.93,0-1.93,3,0,3a11.89,11.89,0,0,0,11.58-9.67,20.54,20.54,0,0,0,.19-3.5V15.85c0-4.14.15-8.08-2.69-11.56A12.13,12.13,0,0,0,58.35,0H12.69A12.8,12.8,0,0,0,4.07,2.9a12,12,0,0,0-4,9.17c0,3.1,0,6.21,0,9.32v83.23c0,2.39-.08,4.81,0,7.2a11.89,11.89,0,0,0,9.67,11.24,29.67,29.67,0,0,0,4.9.19H58.9A1.5,1.5,0,0,0,58.9,120.25Z"/></g><path class="cls-1" d="M106.59,35.61l-5.67,6.19H103l-5.67-6.19a1.5,1.5,0,0,0-2.13,2.12l5.68,6.19a1.51,1.51,0,0,0,2.12,0l5.68-6.19a1.54,1.54,0,0,0,0-2.12,1.51,1.51,0,0,0-2.13,0Z"/><path class="cls-1" d="M80.2,19c4.13,0,8.26-.06,12.39,0a8,8,0,0,1,7.82,6.79,45.93,45.93,0,0,1,.07,6.21v7.27a1.5,1.5,0,0,0,3,0V32.65a64.46,64.46,0,0,0-.06-6.81,11,11,0,0,0-8.07-9.49c-2.37-.61-5-.35-7.45-.35H80.2a1.51,1.51,0,0,0,0,3Z"/></g></g></svg>